<svg width="243" height="65" viewBox="0 0 243 65" fill="none" xmlns="http://www.w3.org/2000/svg">
<path fill-rule="evenodd" clip-rule="evenodd" d="M12.4983 0.224003C7.53241 2.19021 2.05933 7.73133 0.337194 14.6912C-1.84496 23.5056 7.24932 27.237 8.00423 26.0193C8.86529 24.5781 6.36466 24.0866 5.84566 19.5174C5.17332 13.6076 8.09859 7.00517 11.767 4.11172C12.4511 3.57549 12.4157 4.32398 12.4157 5.70926C12.4157 8.18936 12.2742 30.432 12.2742 35.0683C12.2742 41.3467 12.0029 43.3352 11.5075 45.2903C11.0003 47.2788 10.1982 48.6194 10.8115 49.1333C11.4957 49.7142 14.4091 48.3401 16.0841 46.117C18.1011 43.4581 18.8088 40.263 18.9386 36.7999C19.0919 32.6105 19.0801 25.9857 19.0919 22.1986C19.0919 18.7242 19.1509 8.56919 19.033 2.45832C18.9858 0.972501 14.5861 -0.591525 12.4983 0.224003ZM241.884 33.2138C241.165 33.2138 240.834 33.9176 240.563 35.0906C239.619 39.1906 238.629 40.1178 237.343 40.1178C235.916 40.1178 234.63 38.0846 234.3 34.0181C234.04 30.823 234.075 24.9356 234.406 19.0817C234.477 17.8751 234.123 16.691 230.702 15.5179C229.228 15.0152 227.081 14.2667 226.019 16.7021C223.011 23.5503 221.832 28.9909 221.549 31.2029C221.537 31.3146 221.384 31.3369 221.36 31.08C221.183 29.3037 220.794 26.0863 220.735 19.3275C220.723 18.0092 220.428 16.8809 218.883 15.9648C217.88 15.3727 214.837 14.3114 213.74 15.5738C212.797 16.6016 211.688 19.361 210.544 22.6343C209.612 25.2931 208.975 27.0917 208.975 27.0917C208.975 27.0917 208.987 19.9084 208.998 17.1937C208.998 16.1659 208.255 15.8307 208.031 15.7637C207.017 15.4844 205.012 15.0264 204.162 15.0264C203.112 15.0264 202.865 15.5738 202.865 16.3782C202.865 16.4787 202.7 25.8293 202.7 32.3647V33.292C202.122 36.2971 200.246 40.3748 198.206 40.3748C196.153 40.3748 195.198 38.6767 195.198 30.8789C195.198 26.3321 195.339 24.3547 195.41 21.0702C195.445 19.1822 195.528 17.7187 195.528 17.3948C195.516 16.3782 193.653 15.8754 192.791 15.6855C191.919 15.4956 191.164 15.4174 190.574 15.4509C189.736 15.4956 189.147 16.0095 189.147 16.7245C189.147 17.1043 189.147 17.8305 189.147 17.8305C188.073 16.2441 186.351 15.1381 185.195 14.8141C182.105 13.9539 178.873 14.7136 176.431 17.931C174.497 20.4781 173.329 23.3716 172.869 27.5274C172.527 30.5661 172.645 33.6495 173.235 36.2524C172.515 39.1906 171.17 40.3971 169.708 40.3971C167.585 40.3971 166.039 37.1238 166.216 31.4598C166.334 27.7397 167.125 25.1255 167.986 21.3383C168.351 19.7296 168.056 18.8806 167.302 18.0762C166.617 17.3389 165.143 16.9591 163.032 17.4171C161.534 17.7523 159.375 18.1098 157.417 18.3779C157.417 18.3779 157.535 17.931 157.629 17.149C158.136 13.0267 153.383 13.3618 151.861 14.6801C150.953 15.4732 150.34 16.4005 150.104 18.0651C149.738 20.7127 152.026 21.964 152.026 21.964C151.272 25.2037 149.431 29.4378 147.532 32.4988C146.518 34.141 145.728 35.3587 144.725 36.6434C144.725 36.1631 144.725 35.6827 144.713 35.2023C144.69 28.3876 144.784 23.0253 144.831 21.0926C144.867 19.2046 144.949 17.7858 144.949 17.4506C144.937 16.7133 144.477 16.434 143.522 16.0765C142.673 15.7637 141.682 15.5515 140.644 15.4733C139.346 15.3727 138.556 16.0318 138.58 16.8027C138.58 16.9479 138.58 17.8416 138.58 17.8416C137.506 16.2553 135.784 15.1493 134.628 14.8253C131.538 13.9651 128.306 14.7248 125.864 17.9422C123.93 20.4893 122.668 24.0754 122.302 27.5051C121.972 30.7002 122.031 33.4149 122.491 35.705C121.995 37.9952 120.58 40.3971 118.987 40.3971C116.947 40.3971 115.779 38.699 115.779 30.9012C115.779 26.3544 115.921 24.377 115.991 21.0926C116.039 19.2046 116.109 17.7411 116.109 17.4171C116.098 16.4005 114.234 15.8978 113.373 15.7079C112.465 15.5068 111.686 15.4397 111.085 15.4844C110.294 15.5403 109.74 16.2106 109.74 16.7021V17.8528C108.666 16.2664 106.933 15.1604 105.788 14.8365C102.698 13.9763 99.4896 14.7583 97.0361 17.9533C95.432 20.0424 94.1345 22.355 93.4739 27.4716C93.2734 28.9462 93.1908 30.3315 93.2026 31.6274C92.5657 35.314 89.7466 39.5481 87.4465 39.5481C86.1018 39.5481 84.8161 37.0791 84.8161 31.8285C84.8161 24.8239 85.2761 14.8588 85.3587 13.8981C85.3587 13.8981 88.2721 13.8534 88.8383 13.8422C90.2892 13.831 91.6102 13.8645 93.5447 13.764C94.5119 13.7193 95.4438 10.4349 94.4529 10.0327C93.9929 9.84276 90.7846 9.68636 89.5107 9.66401C88.4963 9.60815 85.512 9.39589 85.512 9.39589C85.512 9.39589 85.7833 2.7823 85.8423 2.07849C85.8895 1.49757 85.0874 1.19593 84.6392 1.01719C83.5186 0.570323 82.5278 0.358062 81.3482 0.13463C79.7087 -0.189347 78.9773 0.123458 78.824 1.43054C78.5999 3.39674 78.4937 9.18363 78.4937 9.18363C77.2906 9.18363 73.1976 8.9602 72.0062 8.9602C70.8857 8.9602 69.6943 13.4735 71.2277 13.5294C72.9971 13.5964 76.0875 13.6523 78.1399 13.7081C78.1399 13.7081 78.0455 23.8408 78.0455 26.9688C78.0455 27.2928 78.0455 27.6168 78.0455 27.9296C76.9249 33.4707 72.9499 36.4535 72.9499 36.4535C73.7991 32.7892 72.0652 30.041 68.9276 27.7173C67.7717 26.8571 65.4952 25.2372 62.9356 23.4498C62.9356 23.4498 64.41 22.0757 65.7311 19.3163C66.6629 17.3613 66.6983 15.1158 64.4218 14.6242C60.659 13.8087 57.545 16.4117 56.625 19.2046C55.9055 21.3607 56.2947 22.9582 57.6984 24.6228C57.7927 24.7457 57.9107 24.8686 58.0287 24.9915C57.1794 26.5443 56.0116 28.6222 55.0208 30.2309C52.2725 34.7108 50.1965 38.2522 48.6277 38.2522C47.3774 38.2522 47.3892 34.6549 47.3892 31.2922C47.3892 28.3876 47.6133 24.0307 47.802 19.5062C47.861 18.0092 47.0707 17.1602 45.7378 16.3893C44.9357 15.9201 43.2136 14.9929 42.211 14.9929C40.713 14.9929 36.4076 15.1828 32.3382 26.2874C31.831 27.6838 30.8166 30.2421 30.8166 30.2421L30.8992 16.892C30.8992 16.5792 30.7222 16.2776 30.3212 16.0653C29.6371 15.7079 27.797 14.9929 26.1692 14.9929C25.3907 14.9929 25.0014 15.3392 25.0014 16.0207L24.8599 36.9116C24.8599 38.4979 24.9071 40.3524 25.0722 41.1568C25.2374 41.9611 25.5086 42.6314 25.8389 43.0224C26.1692 43.4134 26.5584 43.7151 27.1836 43.838C27.7734 43.9497 31.0053 44.3407 31.1705 43.1788C31.371 41.7824 31.3828 40.2742 33.0813 34.6549C35.7235 25.8964 39.1678 21.6288 40.7837 20.1095C41.0668 19.8413 41.3971 19.8302 41.3735 20.2659C41.3027 22.1874 41.0668 26.9912 40.9017 31.0576C40.4653 41.9611 42.5648 43.9832 45.5727 43.9832C47.8728 43.9832 51.1165 41.8271 54.5962 36.3753C56.7665 32.9792 58.8661 29.6388 60.3877 27.237C61.4375 28.153 62.6289 29.1473 63.8084 30.1974C66.5568 32.6552 67.4532 34.9901 66.8634 37.202C66.4034 38.9001 64.6813 40.6429 61.6145 38.9448C60.718 38.4532 60.3406 38.0734 59.4441 37.5037C58.9605 37.202 58.2174 37.1127 57.781 37.4366C56.6368 38.2522 55.9763 39.2911 55.5988 40.5759C55.2331 41.8271 56.566 42.4862 57.9343 43.0671C59.1256 43.5698 61.6734 44.0167 63.3012 44.0726C69.6354 44.2737 74.7074 41.1903 78.246 33.2361C78.883 40.1066 81.5723 43.9944 86.2433 43.9944C89.3691 43.9944 92.5067 40.1848 93.875 36.4424C94.2642 37.9729 94.854 39.3023 95.5971 40.4195C99.2065 45.8042 106.189 44.6423 109.704 40.0731C110.79 38.6655 110.955 38.1516 110.955 38.1516C111.462 42.4639 115.154 43.972 117.265 43.972C119.624 43.972 122.066 42.9219 123.776 39.2911C123.977 39.6821 124.201 40.062 124.437 40.4195C128.035 45.8042 135.029 44.6423 138.532 40.0731C138.698 39.8609 138.839 39.671 138.969 39.4922L139.075 42.3298C139.075 42.3298 137.07 44.0614 135.843 45.1227C130.429 49.8036 126.312 53.3562 126.006 57.4897C125.616 62.7627 130.158 64.7177 133.59 64.9747C137.235 65.2428 140.361 63.3548 142.272 60.6959C143.958 58.3611 145.067 53.3227 144.985 48.3625C144.949 46.3739 144.902 43.8491 144.855 41.1344C146.754 39.0565 148.901 36.42 150.87 33.3478C153.017 29.9852 155.329 25.483 156.509 21.9751C156.509 21.9751 158.514 21.9863 160.649 21.8634C161.333 21.8299 161.522 21.9528 161.404 22.422C161.25 22.9917 158.703 32.253 161.026 38.4197C162.619 42.6426 166.205 44.0055 168.328 44.0055C170.817 44.0055 173.199 42.2404 174.473 39.6039C174.627 39.8944 174.792 40.1737 174.969 40.4418C178.566 45.8265 185.537 44.6535 189.076 40.0955C189.878 39.0677 190.326 38.174 190.326 38.174C191.081 42.6426 194.773 44.0167 196.884 44.0167C199.078 44.0167 201.166 43.1677 202.865 39.3917C202.936 41.0562 203.053 42.4192 203.219 42.8437C203.325 43.1006 203.95 43.4358 204.41 43.5922C206.427 44.296 208.468 43.9609 209.234 43.8156C209.765 43.7151 210.166 43.3129 210.225 42.2963C210.367 39.6039 210.284 35.0683 211.145 31.7056C212.596 26.0528 213.952 23.8631 214.601 22.7795C214.955 22.1762 215.368 22.0757 215.38 22.7125C215.415 24.0195 215.486 27.8291 216.04 32.968C216.453 36.744 217.008 38.9783 217.432 39.6821C218.647 41.7042 220.145 41.7936 221.36 41.7936C222.138 41.7936 223.755 41.5925 223.613 40.3077C223.542 39.6821 223.672 35.8167 225.099 30.2421C226.043 26.6113 227.6 23.3269 228.166 22.1315C228.378 21.6847 228.473 22.0422 228.473 22.1092C228.355 24.6116 228.083 32.7892 229.169 37.2691C230.631 43.3352 234.878 44.0055 236.352 44.0055C239.501 44.0055 242.085 41.7489 242.957 35.7944C243.123 34.3309 242.816 33.2138 241.884 33.2138ZM109.74 29.5383C109.563 32.6887 108.902 35.3252 107.864 37.2355C105.965 40.6987 102.226 41.7936 100.575 36.7887C99.3834 33.1803 99.7845 28.2647 100.28 25.6059C101.011 21.6623 102.851 18.8694 105.729 19.1375C108.69 19.4168 110.117 22.9917 109.74 29.5383ZM138.58 29.583C138.415 32.5546 137.589 35.5486 136.704 37.2355C134.864 40.7211 131.007 41.8159 129.415 36.7887C128.329 33.359 128.589 28.9239 129.12 26.131C129.816 22.5002 131.514 19.1375 134.569 19.1375C137.542 19.1375 139.004 22.2097 138.58 29.583ZM139.335 49.8818C139.299 55.3112 138.391 60.0591 136.445 61.4444C133.685 63.3995 129.981 61.936 130.747 57.9812C131.432 54.4733 134.628 50.8984 139.335 46.5303C139.346 46.5192 139.346 47.5134 139.335 49.8818ZM189.111 29.6165C188.946 32.8786 188.179 35.4369 187.236 37.2355C185.396 40.7211 181.562 41.8047 179.946 36.7887C179.062 34.0628 179.026 29.4936 179.663 25.6841C180.312 21.8076 182.117 18.8694 185.113 19.1375C188.05 19.4057 189.43 22.9917 189.111 29.6165Z" fill="white"/>
</svg>
